<?xml version="1.0" encoding="UTF-8"?>
<svg id="Layer_1" data-name="Layer 1" xmlns="http://www.w3.org/2000/svg" xmlns:xlink="http://www.w3.org/1999/xlink" viewBox="0 0 337.65 337.65">
  <defs>
    <style>
      .cls-1 {
        fill: url(#linear-gradient);
      }

      .cls-1, .cls-2, .cls-3 {
        stroke-width: 0px;
      }

      .cls-2 {
        fill: url(#linear-gradient-2);
      }

      .cls-3 {
        fill: #111;
      }
    </style>
    <linearGradient id="linear-gradient" x1="153.67" y1="55.96" x2="153.67" y2="290.21" gradientUnits="userSpaceOnUse">
      <stop offset="0" stop-color="#fff"/>
      <stop offset=".81" stop-color="#b49aff"/>
    </linearGradient>
    <linearGradient id="linear-gradient-2" x1="171.39" y1="35.68" x2="171.39" y2="198.83" gradientUnits="userSpaceOnUse">
      <stop offset=".16" stop-color="#fff"/>
      <stop offset=".78" stop-color="#ecfb3e"/>
    </linearGradient>
  </defs>
  <rect class="cls-3" width="337.65" height="337.65" rx="61.89" ry="61.89"/>
  <g>
    <path class="cls-1" d="m143.16,55.72c.99,0,.89.79.89.79,0,.43-.37.77-.8.73-.17-.02-.34-.03-.5-.05-.25-.03-.31.35-.06.39.12.02.25.04.37.07,0,0,0,0,0,0,65.37,11.81,120.55,49.98,122.16,104.38,0,69.96-72.32,127.61-196.28,127.61-14.82,0-26.83-12.02-26.83-26.84s12.01-26.84,26.83-26.84c125.1,0,168.16-42.57,168.16-84.48,0-61.11-77.29-87.89-114.84-95.07-.79-.15-1.57-.3-2.33-.43-.09-.02-.17-.03-.26-.05-.66-.12-1.3-.22-1.92-.33-.19-.03-.38-.06-.57-.09-.56-.09-1.1-.17-1.63-.25-.15-.02-.3-.04-.44-.07-.67-.1-1.32-.19-1.94-.27-.12-.02-.23-.03-.35-.04-.57-.07-1.3-.15-1.78-.21-.29-.03-.5-.27-.5-.56,0-.31.25-.56.56-.56h.72c2.19.17,3.75.35,6.01.65,3.23.43,6.48.71,9.74.85l15.57.66Z"/>
    <path class="cls-2" d="m300.68,109.72c0-52.68-141.29-56.16-188.84-56.16l-.05,1.2c105.19,5.91,160.85,31.25,160.85,50.65,0,32.37-156.74,32.49-203.69,32.49h0c-14.82,0-26.83,12.02-26.83,26.84s12.01,26.84,26.83,26.84h0s0,0,0,0c0,0,0,0,0,0,138.74,0,231.72-37.23,231.72-81.87Z"/>
  </g>
</svg>